<svg xmlns="http://www.w3.org/2000/svg" viewBox="0 0 256 256"><defs><linearGradient id="b" x2="1" y2="1"><stop stop-color="#846048"/><stop offset="1" stop-color="#422f25"/></linearGradient><linearGradient id="p" x2="0" y2="1"><stop stop-color="#fff8de"/><stop offset="1" stop-color="#ddc398"/></linearGradient></defs><rect x="8" y="8" width="240" height="240" rx="55" fill="url(#b)"/><rect x="18" y="18" width="220" height="220" rx="46" fill="none" stroke="#c2a079" stroke-opacity=".35"/><path d="M51 72 Q87 60 119 83 L119 194 Q86 172 51 184Z" fill="url(#p)"/><path d="M137 82 Q170 59 205 72 L205 184 Q170 172 137 194Z" fill="url(#p)"/><path d="M147 60 Q168 44 190 44 L190 140 Q167 141 147 157Z" fill="#bd8850"/><path d="M147 60 Q169 69 190 44" fill="none" stroke="#eacb8f" stroke-width="3"/><path d="M70 99 Q89 96 102 106 M70 120 Q89 117 102 127 M70 141 Q89 138 102 148" fill="none" stroke="#9b7852" stroke-width="5" stroke-linecap="round"/><path d="M128 88 L128 202" stroke="#e7c08c" stroke-width="3" stroke-linecap="round"/></svg>